<svg xmlns="http://www.w3.org/2000/svg" version="1.1" xmlns:xlink="http://www.w3.org/1999/xlink" width="64" height="64" x="0" y="0" viewBox="0 0 500 500" style="enable-background:new 0 0 512 512" xml:space="preserve"><g><path fill-rule="evenodd" d="m430.555 314.211 3.837 11.704-9.982-7.258c-2.372-1.722-5.483-1.723-7.866 0l-9.971 7.258 3.838-11.704a6.671 6.671 0 0 0-2.431-7.484l-9.999-7.258 12.356.056a6.668 6.668 0 0 0 6.352-4.614l3.787-11.76 3.792 11.76a6.677 6.677 0 0 0 6.375 4.614l12.339-.056-9.999 7.258a6.666 6.666 0 0 0-2.428 7.484zm39.448-23.519a6.661 6.661 0 0 0-6.358-4.614l-28.156.056-8.654-26.783c-1.976-6.121-10.726-6.131-12.705 0l-8.654 26.783-28.167-.056c-6.446 0-9.126 8.33-3.916 12.097l22.816 16.543-8.75 26.727c-2.011 6.112 5.087 11.247 10.274 7.484l22.743-16.599 22.754 16.599c5.246 3.815 12.28-1.368 10.285-7.484l-8.761-26.727 22.816-16.543c2.344-1.688 3.328-4.726 2.433-7.483zM89.572 314.211l3.837 11.76-9.97-7.315c-2.36-1.721-5.5-1.721-7.872 0l-9.97 7.315 3.837-11.76a6.653 6.653 0 0 0-2.431-7.484l-9.993-7.258 12.356.056a6.67 6.67 0 0 0 6.353-4.614l3.787-11.76 3.793 11.76a6.67 6.67 0 0 0 6.375 4.614l12.339-.056-9.999 7.258c-2.352 1.689-3.337 4.727-2.442 7.484zm33.108-28.133-28.162.056-8.654-26.783c-1.982-6.12-10.726-6.131-12.705 0l-8.654 26.783-28.167-.056c-6.446 0-9.126 8.33-3.916 12.097l22.816 16.543-8.761 26.727c-2.002 6.119 5.097 11.243 10.28 7.484l22.749-16.599 22.754 16.599c5.243 3.811 12.282-1.364 10.274-7.484l-8.755-26.727 22.811-16.543c5.219-3.765 2.538-12.097-3.91-12.097zm241.998-114.559a6.664 6.664 0 0 0 6.364-4.614l5.092-15.811 5.104 15.811a6.661 6.661 0 0 0 6.364 4.614l16.576-.056-13.437 9.734c-2.346 1.688-3.325 4.726-2.425 7.483l5.154 15.755-13.397-9.734a6.594 6.594 0 0 0-7.872 0l-13.392 9.734 5.154-15.755a6.68 6.68 0 0 0-2.437-7.483l-13.436-9.734zm-41.165-1.351 26.243 19.018-10.066 30.778c-1.999 6.08 5.08 11.26 10.274 7.483l26.17-19.131 26.175 19.131c5.104 3.697 12.303-1.292 10.28-7.483l-10.066-30.778 26.243-19.018c5.23-3.772 2.522-12.103-3.927-12.098l-32.393.056-9.954-30.778c-1.983-6.202-10.719-6.212-12.705 0l-9.954 30.778-32.415-.056c-6.44.001-9.135 8.345-3.905 12.098zm-211.125 1.351c2.911 0 5.477-1.845 6.369-4.614l5.098-15.811 5.092 15.811a6.671 6.671 0 0 0 6.369 4.614l16.582-.056-13.431 9.734a6.675 6.675 0 0 0-2.442 7.483l5.154 15.755-13.386-9.734a6.576 6.576 0 0 0-7.872 0l-13.397 9.734 5.154-15.755c.9-2.757-.084-5.795-2.431-7.483l-13.437-9.734zm-41.165-1.351 26.248 19.018L87.4 219.964c-2.022 6.187 5.18 11.182 10.286 7.483l26.17-19.131 26.175 19.131c5.206 3.789 12.275-1.382 10.274-7.483l-10.072-30.778 26.249-19.018c5.228-3.774 2.529-12.103-3.927-12.098l-32.398.056-9.953-30.778c-1.985-6.207-10.714-6.212-12.7 0l-9.954 30.778-32.404-.056c-6.445.001-9.148 8.339-3.923 12.098zm166.365-62.681a6.665 6.665 0 0 0 6.364-4.614l6.043-18.737 6.049 18.737a6.66 6.66 0 0 0 6.364 4.614l19.671-.056-15.935 11.535c-2.358 1.688-3.337 4.726-2.436 7.483l6.116 18.681-15.89-11.591c-2.281-1.65-5.588-1.652-7.872 0l-15.89 11.591 6.116-18.681c.895-2.757-.09-5.795-2.442-7.483l-15.935-11.535zm-44.266-1.35 28.758 20.819-11.034 33.704c-2.008 6.123 5.035 11.294 10.274 7.483l28.674-20.931 28.668 20.931c5.191 3.767 12.279-1.368 10.28-7.483l-11.028-33.704 28.758-20.819c5.218-3.77 2.515-12.102-3.939-12.097l-35.487.056-10.893-33.76c-1.971-6.111-10.729-6.143-12.711 0l-10.899 33.76-35.504-.056c-6.443-.001-9.131 8.336-3.917 12.097zm56.672 168.181c-13.363 0-24.228-10.86-24.228-24.251 0-13.335 10.865-24.195 24.228-24.195 13.364 0 24.234 10.859 24.234 24.195 0 13.392-10.87 24.251-24.234 24.251zm0-61.837c-20.723 0-37.586 16.88-37.586 37.586 0 20.762 16.863 37.586 37.586 37.586 20.729 0 37.586-16.824 37.586-37.586.001-20.706-16.857-37.586-37.586-37.586zm0 218.484c11.619 0 23.086-1.294 34.222-3.77v-81.249c0-13.448 5.835-25.433 16.424-33.76l50.629-39.724c1.654-1.294 2.707-3.151 2.965-5.289.841-6.859-7.186-11.507-12.75-7.146l-57.679 45.239c-9.976 7.821-20.999 11.591-33.681 11.591-12.851 0-23.818-3.656-33.94-11.591l-57.679-45.239c-3.444-2.701-8.429-2.138-11.135 1.35-2.695 3.432-2.093 8.384 1.351 11.085l50.629 39.724c10.595 8.328 16.424 20.312 16.424 33.76v81.249a157.61 157.61 0 0 0 34.22 3.77zm58.884-108.257c-7.399 5.795-11.31 13.842-11.31 23.238v77.648c21.697-6.921 41.773-18.568 58.827-34.379 2.701-2.532 6.926-2.363 9.436.338 2.504 2.701 2.352 6.921-.349 9.453-64.754 60.364-166.209 60.314-230.97 0-2.706-2.532-2.858-6.752-.354-9.453 2.51-2.701 6.735-2.87 9.436-.338 17.055 15.811 37.13 27.458 58.827 34.379v-77.648c0-9.397-3.91-17.443-11.315-23.238l-50.629-39.724c-9.228-7.202-10.848-20.65-3.612-29.878 7.247-9.228 20.644-10.859 29.883-3.601l57.674 45.239c7.647 5.964 15.727 8.778 25.45 8.778 9.856 0 17.925-2.699 25.691-8.778l57.679-45.239c9.239-7.258 22.642-5.627 29.889 3.601 7.233 9.206 5.618 22.644-3.618 29.878z" clip-rule="evenodd" fill="#8C73CD" opacity="1" data-original="#000000"></path></g></svg>