<svg xmlns="http://www.w3.org/2000/svg" version="1.1" xmlns:xlink="http://www.w3.org/1999/xlink" width="64" height="64" x="0" y="0" viewBox="0 0 512.008 512.008" style="enable-background:new 0 0 512 512" xml:space="preserve" class=""><g><path d="M120.004 331.162V377c0 8.284 6.716 15 15 15s15-6.716 15-15v-45.838c67.406-7.486 120-64.793 120-134.162 0-31.827-11.078-61.112-29.571-84.216l11.192-11.192c5.857-5.858 5.857-15.355 0-21.213s-15.355-5.858-21.213 0L219.22 91.571c-19.424-15.547-43.216-25.846-69.216-28.733V30h15c8.284 0 15-6.716 15-15s-6.716-15-15-15h-60c-8.284 0-15 6.716-15 15s6.716 15 15 15h15v32.838c-26 2.888-49.792 13.186-69.216 28.733L39.597 80.379c-5.859-5.858-15.355-5.858-21.213 0s-5.858 15.355 0 21.213l11.192 11.192C11.082 135.888.004 165.173.004 197c0 69.369 52.594 126.676 120 134.162zm15-29.162c-57.897 0-105-47.103-105-105s47.103-105 105-105 105 47.103 105 105-47.103 105-105 105z" fill="#8C73CD" opacity="1" data-original="#000000" class=""></path><path d="M195.004 182h-45v-45c0-8.284-6.716-15-15-15s-15 6.716-15 15v60c0 8.284 6.716 15 15 15h60c8.284 0 15-6.716 15-15s-6.716-15-15-15zM407.004 302c-24.813 0-45 20.187-45 45s20.187 45 45 45 45-20.187 45-45-20.187-45-45-45zm0 60c-8.271 0-15-6.729-15-15s6.729-15 15-15 15 6.729 15 15-6.729 15-15 15z" fill="#8C73CD" opacity="1" data-original="#000000" class=""></path><path d="M407.004 242c-57.897 0-105 47.103-105 105 0 53.565 35.074 75.291 75.01 135h-32.01c-8.284 0-15 6.716-15 15s6.716 15 15 15h61.483c5.195.17 9.922-2.383 12.694-6.233C475.484 423.33 512.004 402.304 512.004 347c0-57.897-47.103-105-105-105zm0 229.992c-48.916-70.883-75-85.025-75-124.992 0-41.355 33.645-75 75-75s75 33.645 75 75c0 39.98-26.121 54.167-75 124.992zM285.004 482h-60c-8.284 0-15 6.716-15 15s6.716 15 15 15h60c8.284 0 15-6.716 15-15s-6.716-15-15-15zM135.004 422.031c-8.284 0-15 6.716-15 15V467c0 24.813 20.187 45 45 45 8.284 0 15-6.716 15-15s-6.716-15-15-15c-8.271 0-15-6.729-15-15v-29.969c0-8.284-6.716-15-15-15z" fill="#8C73CD" opacity="1" data-original="#000000" class=""></path></g></svg>