<svg xmlns="http://www.w3.org/2000/svg" version="1.1" xmlns:xlink="http://www.w3.org/1999/xlink" width="42" height="42" x="0" y="0" viewBox="0 0 512 512" style="enable-background:new 0 0 512 512" xml:space="preserve"><g><path d="m161.059 266.54-.06-.185c-1.565-4.84-5.264-8.691-10.102-10.263l-67.269-21.855c-2.768-.9-5.675 1.024-5.881 3.928a142.33 142.33 0 0 0-.356 10.071c0 34.326 12.37 65.765 32.912 90.096 1.876 2.222 5.353 2.068 7.062-.285l41.568-57.221c2.999-4.129 3.712-9.435 2.126-14.286zM251.768 200.445l.128.093c4.121 3.008 9.388 3.966 14.241 2.389l67.309-21.873c2.765-.899 3.989-4.159 2.452-6.627-18.986-30.48-49.385-53.113-85.223-61.929-2.822-.694-5.542 1.476-5.542 4.382v70.787c0 5.086 2.52 9.791 6.635 12.778zM100.894 181.055l67.311 21.874c4.852 1.577 10.12.62 14.241-2.389l.134-.098c4.116-2.987 6.636-7.692 6.636-12.778v-70.792c0-2.906-2.72-5.076-5.542-4.382-35.838 8.817-66.237 31.456-85.23 61.937-1.539 2.469-.315 5.729 2.45 6.628zM269.865 377.742c2.689-1.095 3.61-4.449 1.904-6.798l-41.6-57.255c-2.994-4.121-7.808-6.445-12.902-6.437h-.195c-5.094-.009-9.908 2.315-12.902 6.436l-41.6 57.248c-1.707 2.349-.787 5.702 1.902 6.798 16.261 6.628 34.054 10.28 52.698 10.28 18.643.001 36.435-3.651 52.695-10.272zM273.344 266.358l-.06.183c-1.586 4.851-.873 10.157 2.126 14.286l41.566 57.222c1.708 2.351 5.184 2.505 7.058.285 20.542-24.331 32.914-55.772 32.914-90.099 0-3.385-.12-6.744-.356-10.07-.206-2.904-3.112-4.827-5.881-3.927l-67.266 21.859c-4.837 1.571-8.536 5.422-10.101 10.261z" style="" fill="none"></path><path d="M456.397 359.739a142.18 142.18 0 0 0-41.319 41.326c-1.312 2.01-4.239 2.011-5.552.002-10.778-16.477-24.869-30.584-41.342-41.329-2.011-1.312-2.013-4.239-.004-5.553a142.992 142.992 0 0 0 41.346-41.347c1.314-2.008 4.24-2.007 5.552.002a142.702 142.702 0 0 0 41.324 41.345c2.008 1.315 2.006 4.242-.005 5.554zM442.375 117.219v45.593H380.25v-45.593M448.438 116.219h-80.673a5 5 0 0 1-5-5V89.094c0-19.33 15.67-35 35-35h70.673a5 5 0 0 1 5 5v32.125c0 13.807-11.193 25-25 25z" style="stroke-linecap: round; stroke-linejoin: round; stroke-miterlimit: 10;" fill="none" stroke="#8C73CD" stroke-width="15px" stroke-linecap="round" stroke-linejoin="round" stroke-miterlimit="10" data-original="#000000" opacity="1"></path><circle cx="217.172" cy="248.234" r="27.956" style="stroke-linecap: round; stroke-linejoin: round; stroke-miterlimit: 10;" fill="none" stroke="#8C73CD" stroke-width="15px" stroke-linecap="round" stroke-linejoin="round" stroke-miterlimit="10" data-original="#000000" opacity="1"></circle><path d="M455.712 240.469h34.58a15.032 15.032 0 0 0-1.65-3.649l-46.267-74.008M380.25 162.812l-44.456 74.094a14.979 14.979 0 0 0-1.55 3.563h86.469M334.244 240.469a14.982 14.982 0 0 0-.587 4.155v208.814c0 11.046 8.954 20 20 20h117.267c11.046 0 20-8.954 20-20V244.772c0-1.465-.215-2.914-.631-4.303M82.014 87.933C36.444 126.395 7.5 183.934 7.5 248.234c0 115.799 93.873 209.672 209.672 209.672 42.672 0 82.367-12.748 115.484-34.643M361.764 96.394c-37.619-35.834-88.536-57.832-144.592-57.832-38.817 0-75.17 10.548-106.349 28.934" style="stroke-linecap: round; stroke-linejoin: round; stroke-miterlimit: 10;" fill="none" stroke="#8C73CD" stroke-width="15px" stroke-linecap="round" stroke-linejoin="round" stroke-miterlimit="10" data-original="#000000" opacity="1"></path><path d="M332.656 327.003a140.427 140.427 0 0 1-8.621 11.331c-1.875 2.221-5.35 2.067-7.058-.285l-41.566-57.222c-2.999-4.129-3.712-9.435-2.126-14.286l.06-.183c1.565-4.839 5.264-8.69 10.101-10.262l49.93-16.225m-27.57 150.793a168.468 168.468 0 0 0 26.85-20.781m37.072-191.478c-26.492-57.778-84.841-97.911-152.559-97.911-92.637 0-167.733 75.105-167.733 167.742 0 92.637 75.096 167.733 167.733 167.733 19.507 0 38.237-3.33 55.652-9.453m-27.688-289.635c0-2.906 2.72-5.076 5.542-4.382 35.838 8.816 66.237 31.448 85.223 61.929 1.537 2.468.313 5.728-2.452 6.627l-67.309 21.873c-4.852 1.577-10.12.62-14.241-2.389l-.128-.093c-4.115-2.988-6.635-7.692-6.635-12.778v-70.787zm-146.69 57.547c18.993-30.481 49.393-53.12 85.23-61.937 2.822-.694 5.542 1.476 5.542 4.382v70.792c0 5.086-2.52 9.791-6.636 12.778l-.134.098c-4.121 3.008-9.388 3.966-14.241 2.389l-67.311-21.874c-2.764-.9-3.988-4.16-2.45-6.628zm18.922 163.619c-1.709 2.353-5.187 2.507-7.062.285C89.761 314 77.391 282.561 77.391 248.235c0-3.385.12-6.744.356-10.071.206-2.904 3.112-4.827 5.881-3.928l67.269 21.855c4.838 1.572 8.537 5.423 10.102 10.263l.06.185c1.586 4.85.873 10.157-2.126 14.285l-41.568 57.223zm152.5 39.695c-16.26 6.621-34.053 10.272-52.696 10.272-18.644 0-36.437-3.652-52.698-10.28-2.689-1.096-3.609-4.449-1.902-6.798l41.6-57.248c2.994-4.121 7.808-6.444 12.902-6.436h.195c5.094-.008 9.908 2.316 12.902 6.437l41.6 57.255c1.708 2.349.787 5.703-1.903 6.798zM446.642 117.219c4.145 13.762 10.629 24.593 16.33 32.243 5.659 7.594 16.713 8.436 23.41 1.739h0c5.458-5.458 6.075-14.099 1.426-20.261-4.956-6.57-10.604-16.354-13.086-29.252M472.653 100.687H499.5a5 5 0 0 0 5-5V74.625a5 5 0 0 0-5-5h-25.062" style="stroke-linecap: round; stroke-linejoin: round; stroke-miterlimit: 10;" fill="none" stroke="#8C73CD" stroke-width="15px" stroke-linecap="round" stroke-linejoin="round" stroke-miterlimit="10" data-original="#000000" opacity="1"></path></g></svg>